<svg width="512" height="512" viewBox="0 0 512 512" xmlns="http://www.w3.org/2000/svg" role="img" aria-label="pentbox">
  <defs>
    <linearGradient id="acc" gradientUnits="userSpaceOnUse" x1="96" y1="96" x2="416" y2="416">
      <stop offset="0" stop-color="#22d3ee"/><stop offset="1" stop-color="#34d399"/>
    </linearGradient>
    <linearGradient id="bgg" gradientUnits="userSpaceOnUse" x1="46" y1="46" x2="466" y2="466">
      <stop offset="0" stop-color="#131a24"/><stop offset="1" stop-color="#0b0f14"/>
    </linearGradient>
  </defs>

  <!-- La box -->
  <rect x="46" y="46" width="420" height="420" rx="104" fill="url(#bgg)"/>
  <rect x="46" y="46" width="420" height="420" rx="104" fill="none" stroke="url(#acc)" stroke-width="18"/>

  <!-- Prompt P$_ -->
  <!-- P -->
  <g fill="none" stroke="url(#acc)" stroke-width="26" stroke-linecap="round" stroke-linejoin="round">
    <path d="M150 196 V320"/>
    <path d="M150 196 H184 C 216 196 216 256 184 256 H150"/>
  </g>
  <!-- $ -->
  <path d="M292 226 C 292 206 248 204 245 232 C 242 258 292 256 292 284 C 292 312 248 314 240 294"
        fill="none" stroke="url(#acc)" stroke-width="26" stroke-linecap="round" stroke-linejoin="round"/>
  <line x1="268" y1="190" x2="268" y2="330" stroke="url(#acc)" stroke-width="26" stroke-linecap="round"/>
  <!-- curseur -->
  <rect x="322" y="296" width="70" height="24" rx="12" fill="url(#acc)"/>
</svg>
